<?xml version="1.0" standalone="no"?>
<!DOCTYPE svg PUBLIC "-//W3C//DTD SVG 20010904//EN"
 "http://www.w3.org/TR/2001/REC-SVG-20010904/DTD/svg10.dtd">
<svg version="1.0" xmlns="http://www.w3.org/2000/svg"
 width="264.000000pt" height="189.000000pt" viewBox="0 0 264.000000 189.000000"
 preserveAspectRatio="xMidYMid meet">

<g transform="translate(0.000000,189.000000) scale(0.100000,-0.100000)"
fill="#000000" stroke="none">
<path d="M1606 1101 c-4 -7 -5 -15 -2 -18 9 -9 19 4 14 18 -4 11 -6 11 -12 0z"/>
<path d="M1428 915 c-4 -4 -4 -14 -1 -22 3 -8 0 -19 -7 -23 -8 -5 -3 -7 14 -7
20 0 24 3 17 16 -5 9 -10 22 -12 29 -3 7 -7 10 -11 7z"/>
</g>
</svg>
