<?xml version="1.0" standalone="no"?>
<!DOCTYPE svg PUBLIC "-//W3C//DTD SVG 20010904//EN"
 "http://www.w3.org/TR/2001/REC-SVG-20010904/DTD/svg10.dtd">
<svg version="1.0" xmlns="http://www.w3.org/2000/svg"
 width="500.000000pt" height="500.000000pt" viewBox="0 0 500.000000 500.000000"
 preserveAspectRatio="xMidYMid meet">

<g transform="translate(0.000000,500.000000) scale(0.100000,-0.100000)"
fill="#000000" stroke="none">
<path d="M2527 3522 c-35 -38 -12 -102 37 -102 31 0 46 18 46 56 0 57 -49 84
-83 46z m57 -8 c9 -8 16 -24 16 -34 0 -18 -25 -50 -38 -50 -35 1 -49 53 -23
79 25 25 25 25 45 5z"/>
<path d="M2707 3533 c-11 -10 -8 -113 3 -113 6 0 10 11 10 25 0 14 5 25 10 25
6 0 16 -11 22 -25 6 -14 15 -25 20 -25 5 0 4 9 -3 21 -8 15 -8 24 0 32 6 6 11
19 11 29 0 26 -55 50 -73 31z m58 -33 c0 -8 -10 -16 -22 -18 -18 -3 -23 2 -23
18 0 16 5 21 23 18 12 -2 22 -10 22 -18z"/>
<path d="M2895 3504 c-8 -21 -18 -49 -21 -63 -4 -22 -4 -23 6 -8 14 22 56 22
64 1 4 -9 9 -14 12 -11 6 6 -24 96 -37 111 -4 5 -15 -9 -24 -30z m35 -26 c0
-5 -7 -8 -15 -8 -17 0 -18 2 -9 25 5 13 8 14 15 3 5 -7 9 -16 9 -20z"/>
<path d="M3128 3513 c-2 -22 -9 -29 -30 -31 -24 -3 -28 0 -28 22 0 14 -4 26
-10 26 -5 0 -10 -25 -10 -55 0 -30 5 -55 10 -55 6 0 10 11 10 25 0 21 5 25 29
25 25 0 30 -5 34 -27 2 -16 5 0 6 35 1 63 -5 84 -11 35z"/>
<path d="M1771 3374 c-169 -45 -319 -185 -388 -361 -24 -61 -27 -81 -27 -193
0 -112 3 -132 27 -193 70 -178 220 -317 392 -362 75 -19 223 -19 295 0 99 26
180 75 260 155 l75 75 -3 -69 c-7 -142 37 -329 109 -464 144 -270 392 -432
740 -483 122 -18 407 -6 619 26 206 31 505 44 616 26 129 -20 201 -48 324
-127 14 -9 3 4 -23 29 -62 57 -170 118 -272 154 -76 26 -89 28 -245 27 -164 0
-167 -1 -430 -59 -263 -58 -266 -59 -430 -59 -185 -1 -250 11 -377 69 -139 64
-246 157 -326 287 -204 327 -188 853 32 1076 97 98 203 142 346 142 64 0 91
-5 133 -25 72 -33 116 -69 153 -123 23 -35 30 -40 26 -22 -3 14 -13 66 -22
115 -23 132 -21 128 -50 99 -17 -17 -35 -24 -61 -24 -220 0 -312 -8 -389 -33
-135 -45 -264 -136 -348 -247 l-27 -35 0 45 c-1 75 -28 181 -66 256 -100 199
-289 315 -512 313 -53 0 -121 -7 -151 -15z m267 -30 c117 -52 215 -171 266
-324 38 -111 47 -271 22 -383 -34 -152 -121 -283 -228 -342 -48 -27 -62 -30
-143 -30 -82 0 -97 3 -157 33 -206 101 -329 407 -274 682 40 202 165 361 307
389 62 13 145 3 207 -25z"/>
<path d="M2527 3292 c-21 -23 -22 -66 -1 -86 23 -23 61 -20 75 7 12 22 12 22
-9 4 -42 -38 -88 12 -56 60 17 27 27 29 49 7 9 -9 18 -14 21 -11 8 8 -26 37
-45 37 -10 0 -25 -8 -34 -18z"/>
<path d="M2716 3294 c-19 -18 -21 -75 -4 -92 32 -32 88 -2 88 47 0 50 -52 78
-84 45z m58 -17 c19 -28 10 -64 -17 -73 -39 -12 -63 49 -31 80 21 22 31 20 48
-7z"/>
<path d="M2900 3295 c-17 -20 -6 -43 25 -51 14 -3 25 -12 25 -19 0 -24 -21
-28 -42 -8 -20 18 -20 18 -17 -2 7 -37 79 -27 79 11 0 8 -16 21 -36 29 -31 13
-34 17 -24 30 15 19 15 19 35 -1 20 -20 33 -11 15 11 -16 19 -44 19 -60 0z"/>
<path d="M3062 3248 c1 -60 1 -61 7 -18 l6 45 18 -45 19 -45 21 45 22 45 6
-45 c6 -43 6 -42 7 18 2 75 -12 79 -38 12 l-17 -44 -18 47 c-10 26 -22 47 -26
47 -5 0 -8 -28 -7 -62z"/>
<path d="M3267 3303 c-4 -3 -7 -30 -7 -60 l0 -53 38 1 c30 2 32 3 10 6 -34 5
-41 43 -8 43 11 0 20 5 20 11 0 6 -9 9 -20 6 -15 -4 -20 0 -20 14 0 14 7 19
25 19 14 0 25 5 25 10 0 11 -53 14 -63 3z"/>
<path d="M3420 3300 c0 -5 7 -10 15 -10 11 0 15 -12 15 -50 0 -27 5 -50 10
-50 6 0 10 23 10 50 0 38 4 50 15 50 8 0 15 5 15 10 0 6 -18 10 -40 10 -22 0
-40 -4 -40 -10z"/>
<path d="M3593 3250 c0 -36 2 -50 4 -32 2 17 2 47 0 65 -2 17 -4 3 -4 -33z"/>
<path d="M3715 3296 c-21 -15 -25 -67 -5 -90 15 -19 51 -21 68 -4 21 21 13 32
-9 12 -27 -24 -53 -9 -57 34 -4 40 24 58 56 36 23 -16 30 -6 10 14 -16 16 -40
15 -63 -2z"/>
</g>
</svg>
